<?xml version="1.0" encoding="UTF-8"?>
<svg width="240px" height="104px" viewBox="0 0 240 104" version="1.1" xmlns="http://www.w3.org/2000/svg" xmlns:xlink="http://www.w3.org/1999/xlink">
    <title>Group 3</title>
    <g id="Page-1" stroke="none" stroke-width="1" fill="none" fill-rule="evenodd">
        <g id="Group-3" transform="translate(0.0001, 0)" fill="#FFFFFF">
            <path d="M187.194353,0 C187.194353,0 187.962353,18.149 170.901353,20.55 L170.901353,0 L187.194353,0 Z" id="Fill-1"></path>
            <path d="M67.0654527,103.1001 L49.4924527,103.1001 L49.4924527,46.7651 C49.4924527,44.5561 49.0764527,42.5071 48.2124527,40.5551 C47.3794527,38.6021 46.2284527,36.9381 44.7874527,35.4971 C43.3474527,34.0571 41.6504527,32.9371 39.7304527,32.0731 C37.8094527,31.2411 35.7294527,30.7921 33.5204527,30.7921 C31.3114527,30.7921 29.2634527,31.2081 27.3104527,32.0091 C25.3574527,32.8091 23.6934527,33.9291 22.2534527,35.3701 C20.8134527,36.8101 19.6924527,38.4751 18.8284527,40.3631 C17.9644527,42.2511 17.5474527,44.3001 17.5474527,46.5091 C17.5474527,48.7171 17.9644527,50.7661 18.7644527,52.7181 C19.5644527,54.6711 20.6854527,56.3351 22.1254527,57.7761 C23.5654527,59.2161 25.2304527,60.3361 27.1184527,61.2011 C29.0074527,62.0331 31.0554527,62.4491 33.2644527,62.4491 C37.0734527,62.4491 40.2744527,61.3921 42.8664527,59.2801 L42.8664527,78.8701 C39.6664527,79.7981 36.3694527,80.2461 33.0084527,80.2461 C28.4624527,80.2461 24.1414527,79.3501 20.1084527,77.5891 C16.0754527,75.8291 12.5544527,73.3961 9.54545271,70.3231 C6.56845271,67.2501 4.20045271,63.6651 2.47145271,59.5681 C0.74345271,55.4711 -0.08854729,51.1181 0.00745271002,46.4761 C0.00745271002,41.8351 0.90345271,37.5141 2.66445271,33.4491 C4.42445271,29.4161 6.82545271,25.8631 9.86545271,22.8221 C12.9064527,19.7811 16.4274527,17.4121 20.4924527,15.6841 C24.5254527,13.9551 28.8784527,13.0921 33.5204527,13.0921 C38.1614527,13.0921 42.5144527,13.9881 46.6114527,15.7481 C50.7094527,17.5091 54.2624527,19.9091 57.3024527,22.9501 C60.3434527,25.9911 62.7124527,29.5441 64.4404527,33.6411 C66.1694527,37.7381 67.0334527,42.0911 67.0334527,46.7331 L67.0334527,103.1001 L67.0654527,103.1001 Z" id="Fill-3"></path>
            <path d="M168.724653,43.0835 C168.724653,43.5955 168.756653,44.1405 168.788653,44.7165 C168.821653,45.2925 168.853653,45.9005 168.853653,46.4765 L168.853653,80.2455 L151.024653,80.2455 L151.024653,46.8605 C151.024653,44.7485 150.736653,42.7315 150.192653,40.7795 C149.647653,38.8265 148.847653,37.1295 147.790653,35.6575 C146.735653,34.1855 145.454653,33.0335 143.917653,32.1685 C142.381653,31.3365 140.685653,30.8885 138.733653,30.8885 C135.276653,30.8885 132.586653,32.3285 130.634653,35.1775 C128.682653,38.0585 127.689653,41.8035 127.593653,46.4445 L127.593653,80.2135 L110.020653,80.2135 L110.020653,46.8605 C110.020653,42.0595 109.060653,38.1865 107.108653,35.2735 C105.155653,32.3605 102.434653,30.9205 98.8826527,30.9205 C97.0256527,30.9205 95.3286527,31.3365 93.8246527,32.2005 C92.3206527,33.0335 91.0076527,34.1855 89.9196527,35.6255 C88.8316527,37.0655 87.9676527,38.7625 87.3916527,40.6835 C86.8146527,42.6355 86.4946527,44.6525 86.4946527,46.7645 L86.4946527,80.2775 L69.0496527,80.2775 L69.0496527,46.4765 C69.0496527,41.8355 69.7866527,37.5145 71.2586527,33.4495 C72.7306527,29.4165 74.8116527,25.8625 77.4686527,22.8225 C80.1246527,19.7815 83.3256527,17.4125 87.0706527,15.6845 C90.8156527,13.9555 94.9766527,13.0915 99.5226527,13.0915 C103.075653,13.0915 106.468653,13.9235 109.701653,15.5565 C112.933653,17.1885 115.974653,19.1095 118.759653,21.3175 C121.448653,19.1415 124.392653,17.2205 127.625653,15.5565 C130.827653,13.9235 134.379653,13.0915 138.252653,13.0915 C142.541653,13.0915 146.479653,13.8595 150.064653,15.3645 C153.649653,16.8685 156.753653,18.9805 159.346653,21.7015 C161.971653,24.3905 164.051653,27.5915 165.684653,31.2405 C167.316653,34.9215 168.308653,38.8585 168.724653,43.0835" id="Fill-6"></path>
            <path d="M223.332053,30.7925 C221.123053,30.7925 219.075053,31.2085 217.122053,32.0725 C215.170053,32.9045 213.505053,34.0575 212.064053,35.4975 C210.624053,36.9385 209.504053,38.6025 208.704053,40.5555 C207.903053,42.5075 207.487053,44.5565 207.487053,46.7645 C207.487053,48.9735 207.903053,51.0215 208.736053,52.9745 C209.568053,54.9265 210.721053,56.5915 212.161053,58.0315 C213.602053,59.4725 215.266053,60.5925 217.154053,61.3925 C219.043053,62.1925 221.091053,62.6085 223.300053,62.6085 L239.240053,62.6085 L239.240053,80.3095 L223.300053,80.3095 C218.658053,80.3095 214.306053,79.4455 210.272053,77.7175 C206.207053,75.9885 202.686053,73.6205 199.645053,70.5795 C196.604053,67.5385 194.204053,63.9855 192.443053,59.8885 C190.683053,55.7915 189.787053,51.4385 189.787053,46.7965 C189.787053,42.1555 190.651053,37.8025 192.380053,33.7055 C194.108053,29.6075 196.477053,26.0555 199.518053,23.0145 C202.559053,19.9735 206.111053,17.5725 210.208053,15.8125 C214.306053,14.0515 218.658053,13.1555 223.300053,13.1555 L239.240053,13.1555 L239.240053,30.8565 L223.332053,30.8565 L223.332053,30.7925 Z" id="Fill-8"></path>
            <path d="M187.961953,7.7783 L187.961953,80.2453 L170.900953,80.2453 L170.900953,24.1343 C179.768953,23.5263 186.905953,16.6123 187.961953,7.7783" id="Fill-10"></path>
        </g>
    </g>
</svg>